<svg width="162" height="248" viewBox="0 0 162 248" fill="none" xmlns="http://www.w3.org/2000/svg">
<g clip-path="url(#clip0_5_2)">
<path d="M157.949 3.68594C144.572 6.33682 129.989 19.0051 125.932 23.6941C121.875 28.3831 105.753 59.874 82.6448 58.8482C59.5364 57.8358 51.5552 39.9857 36.9584 21.243C22.3615 2.51369 4.60938 3.01989 4.60938 3.01989" stroke="white" stroke-width="3" stroke-miterlimit="10"/>
<path d="M104.845 15.1848C104.845 15.1848 127.33 -0.134352 158.738 3.32911C158.738 3.32911 143.531 23.8168 143.783 44.5843" stroke="white" stroke-width="3" stroke-miterlimit="10"/>
<path d="M58.2322 14.3179C58.2322 14.3179 35.9457 -1.97368 4.12695 2.91513C4.12695 2.91513 16.5232 14.4245 18.5516 44.9696" stroke="white" stroke-width="3" stroke-miterlimit="10"/>
<path d="M75.9876 89.5803C75.9876 89.5803 61.9078 95.3616 46.5022 91.0323C33.9868 87.5155 21.2197 77.951 18.5151 53.4137C15.9829 30.4616 35.2333 12.7447 79.2095 13.1443C123.186 13.5573 146.546 26.6119 144.16 54.4261C142.131 78.0443 123.689 91.685 110.312 93.9229C96.9352 96.1608 85.7853 89.6469 85.7853 89.6469" stroke="white" stroke-width="3" stroke-miterlimit="10"/>
<path d="M74.1237 57.5029C74.1237 57.5029 67.5212 82.6796 80.6995 95.6543C80.6995 95.6543 95.0179 85.8234 90.6031 58.0091" stroke="white" stroke-width="3" stroke-miterlimit="10"/>
<path d="M115.904 38.4961C120.12 42.2127 122.798 47.661 122.798 53.7353C122.798 64.9117 113.783 73.9833 102.647 73.9833C98.5367 73.9833 94.7186 72.7444 91.5234 70.6264" stroke="white" stroke-width="3" stroke-miterlimit="10"/>
<path d="M107.228 47.9912C108.991 49.1102 110.224 51.0018 110.436 53.253C110.794 57.1028 107.984 60.513 104.152 60.8726C100.705 61.1923 97.6161 58.9411 96.7676 55.6908" stroke="white" stroke-width="3" stroke-miterlimit="10"/>
<path d="M48.8583 37.6699C44.6423 41.3865 41.2881 46.9147 41.2881 52.9891C41.2881 64.1654 50.3033 73.237 61.4399 73.237C65.5499 73.237 69.3683 71.9982 72.5634 69.8801" stroke="white" stroke-width="3" stroke-miterlimit="10"/>
<path d="M57.2505 47.0225C55.2883 48.1015 53.8831 50.0996 53.6577 52.5107C53.2997 56.3605 56.1104 59.7707 59.9419 60.1304C63.2563 60.4367 66.2393 58.372 67.2204 55.3215" stroke="white" stroke-width="3" stroke-miterlimit="10"/>
<path d="M144.315 53.4111C141.067 67.3582 163.406 144.22 81.0222 216.3C-1.36197 144.22 21.7466 67.3582 18.5117 53.4111" stroke="white" stroke-width="3" stroke-miterlimit="10"/>
<path d="M61.1715 196.63L44.4668 226.549C44.4668 226.549 70.2798 266.126 116.417 232.264L99.8577 197.056" stroke="white" stroke-width="3" stroke-miterlimit="10"/>
</g>
<defs>
<clipPath id="clip0_5_2">
<rect width="162" height="248" fill="white"/>
</clipPath>
</defs>
</svg>
