<svg width="100" height="223" viewBox="0 0 100 223" fill="none" xmlns="http://www.w3.org/2000/svg">
<path d="M97.0941 111.244C97.0941 153.609 78.9994 191.685 50.1991 218.068C21.457 191.685 3.3623 153.609 3.3623 111.244C3.3623 68.8792 21.457 30.8036 50.2573 4.4209C79.0575 30.8036 97.1522 68.8792 97.1522 111.244H97.0941Z" stroke="white" stroke-width="3" stroke-miterlimit="10"/>
<path d="M79.8721 111.246C79.8721 138.04 58.3446 159.78 31.8135 159.78C23.9007 159.78 16.5115 157.841 9.93691 154.433C5.6896 140.801 3.3623 126.288 3.3623 111.246C3.3623 96.2034 5.6896 81.69 9.93691 68.058C16.5115 64.65 23.9589 62.7109 31.8135 62.7109C58.3446 62.7109 79.8721 84.4517 79.8721 111.246Z" stroke="white" stroke-width="3" stroke-miterlimit="10"/>
</svg>
