<svg width="217" height="217" viewBox="0 0 217 217" fill="none" xmlns="http://www.w3.org/2000/svg">
<path d="M151.933 3.83301H65.1737L3.83691 65.1698V151.929L65.1737 213.266H151.933L213.27 151.929V65.1698L151.933 3.83301Z" stroke="white" stroke-width="2.61445" stroke-miterlimit="10"/>
<path d="M65.1737 3.83301L54.2783 54.0727L3.83691 65.1698" stroke="white" stroke-width="2.61445" stroke-miterlimit="10"/>
<path d="M108.25 32.5846L65.1729 3.83301" stroke="white" stroke-width="2.61445" stroke-miterlimit="10"/>
<path d="M151.929 3.83301L108.247 32.5846" stroke="white" stroke-width="2.61445" stroke-miterlimit="10"/>
<path d="M54.272 54.073L108.244 32.585" stroke="white" stroke-width="2.61445" stroke-miterlimit="10"/>
<path d="M31.7729 108.551L54.2698 54.0742" stroke="white" stroke-width="2.61445" stroke-miterlimit="10"/>
<path d="M54.0681 163.329L31.7729 108.55" stroke="white" stroke-width="2.61445" stroke-miterlimit="10"/>
<path d="M108.946 184.817L54.0659 163.329" stroke="white" stroke-width="2.61445" stroke-miterlimit="10"/>
<path d="M162.523 162.623L108.954 184.817" stroke="white" stroke-width="2.61445" stroke-miterlimit="10"/>
<path d="M184.518 108.146L162.526 162.623" stroke="white" stroke-width="2.61445" stroke-miterlimit="10"/>
<path d="M162.526 54.5791L184.518 108.148" stroke="white" stroke-width="2.61445" stroke-miterlimit="10"/>
<path d="M108.247 32.585L162.522 54.5774" stroke="white" stroke-width="2.61445" stroke-miterlimit="10"/>
<path d="M162.523 54.5771L151.93 3.83301" stroke="white" stroke-width="2.61445" stroke-miterlimit="10"/>
<path d="M213.27 65.1718L162.526 54.5791" stroke="white" stroke-width="2.61445" stroke-miterlimit="10"/>
<path d="M184.514 108.147L213.265 65.1709" stroke="white" stroke-width="2.61445" stroke-miterlimit="10"/>
<path d="M213.265 151.93L184.514 108.146" stroke="white" stroke-width="2.61445" stroke-miterlimit="10"/>
<path d="M162.526 162.624L212.564 151.628" stroke="white" stroke-width="2.61445" stroke-miterlimit="10"/>
<path d="M151.93 213.266L162.523 162.623" stroke="white" stroke-width="2.61445" stroke-miterlimit="10"/>
<path d="M108.954 184.816L151.93 213.265" stroke="white" stroke-width="2.61445" stroke-miterlimit="10"/>
<path d="M65.1729 213.265L108.956 184.816" stroke="white" stroke-width="2.61445" stroke-miterlimit="10"/>
<path d="M54.0659 163.329L65.163 213.266" stroke="white" stroke-width="2.61445" stroke-miterlimit="10"/>
<path d="M3.83691 151.928L54.0766 163.327" stroke="white" stroke-width="2.61445" stroke-miterlimit="10"/>
<path d="M31.7815 108.55L3.83691 151.929" stroke="white" stroke-width="2.61445" stroke-miterlimit="10"/>
<path d="M3.83691 65.1709L31.7815 108.551" stroke="white" stroke-width="2.61445" stroke-miterlimit="10"/>
</svg>
